<svg xmlns="http://www.w3.org/2000/svg" viewBox="0 0 30.98 41.7">
    <title>Asset 3</title>
    <g id="Layer_2" data-name="Layer 2">
        <g id="Layer_1-2" data-name="Layer 1">
            <path d="M.89,0,6.56,8.12a15.19,15.19,0,0,1,6-2.62A15.34,15.34,0,0,1,25.45,8.82a15.37,15.37,0,0,1,4.21,5.66,15.74,15.74,0,0,1,1.3,7L30.09,41.7l-5.65-8.07a15.33,15.33,0,0,1-12.54,2.5,15.12,15.12,0,0,1-6.37-3.2,15.37,15.37,0,0,1-4.21-5.67,15.86,15.86,0,0,1-1.31-7q.15-3.37.44-10.12C.65,5.63.79,2.25.89,0ZM18.16,9.55a11.34,11.34,0,0,0-4.6-.14A11.29,11.29,0,0,0,6.22,14a11.49,11.49,0,0,0-1.91,4.17,11.35,11.35,0,0,0-.15,4.57A11.94,11.94,0,0,0,5.67,27a11.51,11.51,0,0,0,3,3.29,11.39,11.39,0,0,0,8.75,2.08,11.28,11.28,0,0,0,7.35-4.63,11.86,11.86,0,0,0,1.91-4.18,11.55,11.55,0,0,0-.15-6,11.41,11.41,0,0,0-3.08-5.11A11.06,11.06,0,0,0,18.16,9.55Z"/>
        </g>
    </g>
</svg>
